<?xml version="1.0" encoding="utf-8"?>
<!-- Generator: Adobe Illustrator 12.0.0, SVG Export Plug-In . SVG Version: 6.00 Build 51448)  -->
<!DOCTYPE svg PUBLIC "-//W3C//DTD SVG 1.1//EN" "http://www.w3.org/Graphics/SVG/1.1/DTD/svg11.dtd" [
	<!ENTITY ns_svg "http://www.w3.org/2000/svg">
	<!ENTITY ns_xlink "http://www.w3.org/1999/xlink">
]>
<svg  version="1.1" id="Ebene_1" xmlns="&ns_svg;" xmlns:xlink="&ns_xlink;" width="453.941" height="348.031"
	 viewBox="0 0 453.941 348.031" overflow="visible" enable-background="new 0 0 453.941 348.031" xml:space="preserve">
<g>
	<path fill="#DDDCDD" stroke="#000000" d="M33.088,17.452"/>
	<rect x="40.042" y="18.813" fill="#E3E4E4" stroke="#000000" stroke-width="0.5" width="413.4" height="3.117"/>
	<g>
		<g>
			<polygon fill="#3C6BAE" points="453.441,23.677 25.269,23.677 25.269,23.683 25.173,23.683 25.173,100.419 28.291,100.419
				28.291,26.794 453.441,26.794 			"/>
		</g>
	</g>
	<rect x="20.188" y="32.966" fill="#E3E4E4" stroke="#000000" stroke-width="0.5" width="3.215" height="67.371"/>
	<path fill="#E3E4E4" stroke="#000000" stroke-width="0.5" d="M20.242,29.003l0.012-23.372h-5.243v15.727
		c0,0-0.308,5.922,8.327,9.212c8.636,3.29,12.966,3.369,18.671,9.093c0,0-4.437-3.04-16.773-1.79c0,0-8.365,1.501-12.375-4.025
		c0,0-3.792,2.439-8.573,0.596c0,0-7.405-3.799-2.162-10.511c0,0,1.935,3.149,4.711,2.623c0,0,4.682-0.982,4.549-5.264l0.231-19.049
		h11.72v28.327L20.242,29.003z"/>
	<path fill="#E3E4E4" stroke="#000000" stroke-width="0.5" d="M23.358,18.813h9.06c0,0,1.634,2.408,1.565,3.154h-10.58
		L23.358,18.813z"/>
	<path fill="#E3E4E4" stroke="#000000" stroke-width="0.5" d="M15.022,13.497h8.351c0,0,6.709-0.298,10.437,8.051
		c3.727,8.349,2.087,12.3,8.573,17.817c0,0-2.162-4.101-0.746-16.028c0,0,1.417-7.976-4.846-11.853c0,0,3.429-2.46,1.342-7.082
		c0,0-4.1-7.455-11.703-2.385c0,0,3.428,0.895,2.833,3.578c0,0-1.118,4.474-5.964,4.398l-8.289,0.085L15.022,13.497z"/>
	<polygon fill="#E3E4E4" stroke="#000000" stroke-width="0.5" points="11.501,9.976 1.792,9.995 1.792,22.024 20.196,22.024
		20.196,18.799 5.814,18.951 5.852,13.6 11.485,13.568 	"/>
</g>
</svg>
