<?xml version="1.0" encoding="utf-8"?>
<!-- Generator: Adobe Illustrator 12.0.0, SVG Export Plug-In . SVG Version: 6.00 Build 51448)  -->
<!DOCTYPE svg PUBLIC "-//W3C//DTD SVG 1.1//EN" "http://www.w3.org/Graphics/SVG/1.1/DTD/svg11.dtd" [
	<!ENTITY ns_svg "http://www.w3.org/2000/svg">
	<!ENTITY ns_xlink "http://www.w3.org/1999/xlink">
]>
<svg  version="1.1" id="Ebene_1" xmlns="&ns_svg;" xmlns:xlink="&ns_xlink;" width="449.606" height="112.992"
	 viewBox="0 0 449.606 112.992" overflow="visible" enable-background="new 0 0 449.606 112.992" xml:space="preserve">
<g>
	<path fill="#316598" d="M67.686,78.679c0,0.623-0.143,1.03-0.429,1.223c-0.286,0.193-0.833,0.289-1.64,0.289h-7.25
		c-0.774,0-1.295-0.119-1.564-0.356c-0.27-0.237-0.404-0.623-0.404-1.157c0-0.297,0.118-0.942,0.353-1.936s0.488-2.254,0.757-3.782
		c0.269-1.527,0.521-3.292,0.756-5.295c0.234-2.002,0.352-4.16,0.352-6.474v-1.157c-3.023,0-5.181,0.638-6.474,1.914
		s-1.906,2.966-1.838,5.072c0.033,1.246,0.151,2.507,0.353,3.782c0.202,1.275,0.42,2.455,0.656,3.537
		c0.235,1.083,0.446,2.017,0.631,2.803s0.278,1.298,0.278,1.535c0,0.623-0.143,1.031-0.429,1.224s-0.834,0.289-1.645,0.289h-7.219
		c-0.808,0-1.346-0.118-1.615-0.355s-0.403-0.623-0.403-1.156c0-0.296,0.118-0.94,0.353-1.934s0.496-2.253,0.782-3.779
		s0.546-3.29,0.781-5.291c0.234-2,0.352-4.157,0.352-6.469v-2.312c0-1.689-0.009-3.112-0.025-4.268
		c-0.017-1.156-0.042-2.134-0.076-2.934s-0.067-1.46-0.101-1.979s-0.067-0.978-0.101-1.378c-0.034-0.4-0.059-0.778-0.076-1.133
		s-0.025-0.771-0.025-1.245c0-0.474,0.101-0.83,0.303-1.067s0.606-0.356,1.213-0.356h4.497c0.606,0,1.011,0.119,1.213,0.355
		s0.303,0.592,0.303,1.066c0,0.503-0.008,0.933-0.025,1.288s-0.041,0.733-0.074,1.132c-0.033,0.4-0.057,0.866-0.073,1.399
		c-0.017,0.533-0.041,1.214-0.074,2.043s-0.057,1.851-0.074,3.065s-0.024,2.709-0.024,4.486c1.545-1.152,2.982-1.943,4.309-2.372
		s2.797-0.687,4.41-0.776c-0.034-1.866-0.076-3.333-0.127-4.399s-0.093-1.926-0.127-2.578c-0.034-0.651-0.068-1.2-0.102-1.644
		c-0.034-0.444-0.051-0.992-0.051-1.645c0-0.474,0.092-0.829,0.277-1.066c0.185-0.237,0.596-0.355,1.233-0.355h4.429
		c0.638,0,1.057,0.119,1.258,0.356s0.302,0.593,0.302,1.067c0,0.504-0.008,0.934-0.025,1.29s-0.041,0.726-0.074,1.111
		s-0.057,0.837-0.073,1.356c-0.017,0.519-0.041,1.178-0.074,1.979s-0.057,1.778-0.074,2.934c-0.017,1.156-0.024,2.579-0.024,4.268
		v2.312c0,2.312,0.115,4.468,0.346,6.469c0.23,2.001,0.489,3.764,0.775,5.291s0.547,2.786,0.782,3.779S67.686,78.383,67.686,78.679z
		"/>
	<path fill="#316598" d="M89.148,79.346c0,0.326-0.067,0.549-0.202,0.667c-0.135,0.119-0.386,0.178-0.754,0.178H75.063
		c-1.043,0-1.944-0.126-2.701-0.378c-0.758-0.252-1.389-0.682-1.894-1.289s-0.875-1.415-1.111-2.422
		c-0.236-1.008-0.354-2.267-0.354-3.779c0-1.422,0.151-2.674,0.454-3.756c0.303-1.082,0.833-2.104,1.59-3.067
		c0.757-0.963,1.775-1.911,3.055-2.845c1.279-0.934,2.877-1.949,4.796-3.045l2.423-1.378c0-0.563-0.312-1.06-0.934-1.489
		c-0.623-0.43-1.288-0.645-1.994-0.645c-1.178,0-2.104,0.267-2.777,0.801c-0.673,0.534-1.161,1.349-1.464,2.445
		c-0.067,0.148-0.236,0.29-0.505,0.423s-0.69,0.2-1.262,0.2c-0.606,0-1.179-0.244-1.717-0.733c-0.539-0.489-0.808-1.223-0.808-2.202
		c0-1.246,0.647-2.254,1.943-3.026s3.055-1.158,5.276-1.158H79c1.515,0,2.861,0.17,4.039,0.511s2.163,0.926,2.954,1.756
		s1.396,1.919,1.817,3.268s0.631,3.016,0.631,5.001v8.537c0,1.245,0.034,2.283,0.101,3.113s0.151,1.519,0.252,2.067
		c0.101,0.548,0.185,0.993,0.252,1.333S89.148,79.08,89.148,79.346z M82.441,60.45c-1.282,0.829-2.362,1.651-3.239,2.465
		c-0.877,0.814-1.578,1.629-2.101,2.443s-0.894,1.614-1.113,2.398c-0.219,0.785-0.329,1.577-0.329,2.376
		c0,1.599,0.32,2.769,0.961,3.509c0.641,0.74,1.501,1.11,2.581,1.11c0.843-0.089,1.493-0.392,1.948-0.911
		c0.455-0.518,0.776-1.147,0.961-1.888s0.287-1.518,0.304-2.332c0.017-0.814,0.025-1.562,0.025-2.243V60.45z"/>
	<path fill="#316598" d="M113.817,79.168c0,0.682-0.455,1.022-1.363,1.022h-7.563c-0.572,0-0.942-0.074-1.11-0.222
		c-0.168-0.148-0.252-0.43-0.252-0.845c0-0.237,0.109-0.63,0.328-1.178c0.219-0.548,0.462-1.407,0.732-2.578
		c0.269-1.171,0.513-2.742,0.732-4.713c0.219-1.971,0.328-4.512,0.328-7.625c0-0.682-0.017-1.4-0.051-2.156
		s-0.126-1.445-0.278-2.067c-0.151-0.622-0.404-1.141-0.758-1.556s-0.85-0.623-1.49-0.623c-0.505,0-1.002,0.17-1.491,0.511
		s-0.935,0.815-1.339,1.423s-0.724,1.326-0.959,2.156c-0.236,0.83-0.354,1.749-0.354,2.756c0,2.223,0.115,4.201,0.346,5.935
		c0.23,1.734,0.489,3.238,0.775,4.512s0.547,2.312,0.782,3.112s0.354,1.349,0.354,1.645c0,0.623-0.151,1.03-0.454,1.223
		c-0.303,0.193-0.841,0.289-1.615,0.289h-6.031c-0.808,0-1.346-0.118-1.615-0.355s-0.403-0.623-0.403-1.156
		c0-0.296,0.118-0.845,0.353-1.645s0.496-1.838,0.782-3.112s0.546-2.779,0.781-4.513c0.234-1.734,0.352-3.712,0.352-5.936
		c0-1.097-0.034-2.164-0.101-3.201s-0.135-1.979-0.202-2.824s-0.134-1.556-0.202-2.134s-0.101-0.956-0.101-1.134
		c0-0.474,0.067-0.771,0.202-0.889c0.134-0.118,0.487-0.178,1.057-0.178h3.921c0.637,0,0.997,0.274,1.081,0.823
		s0.126,1.534,0.126,2.957c1.414-1.512,2.66-2.616,3.738-3.313c1.078-0.696,2.172-1.045,3.284-1.045
		c1.718,0,3.107,0.452,4.168,1.356c1.061,0.904,1.591,2.334,1.591,4.291v6.847c0,1.957,0.101,3.706,0.303,5.247
		c0.202,1.542,0.42,2.89,0.657,4.046c0.234,1.156,0.453,2.134,0.656,2.935C113.716,78.057,113.817,78.694,113.817,79.168z"/>
	<path fill="#316598" d="M135.313,72.906c0,2.611-0.724,4.525-2.17,5.741c-1.446,1.217-3.801,1.825-7.063,1.825h-3.229
		c-2.727,0-4.729-0.445-6.006-1.336c-1.279-0.891-1.918-2.183-1.918-3.875c0-0.89,0.277-1.594,0.832-2.113
		c0.555-0.519,1.068-0.778,1.539-0.778c0.27,0,0.496,0.126,0.682,0.378s0.445,0.534,0.783,0.845
		c0.336,0.312,0.807,0.593,1.412,0.845s1.464,0.378,2.574,0.378c0.538,0,1.076-0.029,1.615-0.089
		c0.538-0.059,1.035-0.178,1.488-0.355c0.455-0.178,0.842-0.415,1.161-0.712c0.319-0.296,0.513-0.682,0.581-1.156
		c0-0.385-0.025-0.733-0.076-1.045s-0.193-0.623-0.43-0.934c-0.234-0.311-0.588-0.652-1.059-1.022s-1.11-0.823-1.918-1.357
		l-1.867-1.201c-1.211-0.771-2.221-1.43-3.027-1.979c-0.808-0.548-1.455-1.082-1.943-1.601c-0.487-0.519-0.832-1.06-1.033-1.623
		c-0.203-0.563-0.303-1.245-0.303-2.046c0-2.401,0.815-4.143,2.448-5.225s4.031-1.624,7.196-1.624h1.363
		c2.523,0,4.409,0.384,5.654,1.153c1.246,0.769,1.869,1.79,1.869,3.063c0,1.156-0.354,2.031-1.063,2.624
		c-0.707,0.593-1.533,0.889-2.477,0.889c-1.078,0-1.617-0.163-1.617-0.489c0-1.245-0.354-2.216-1.061-2.913
		c-0.705-0.696-1.766-1.045-3.178-1.045c-0.706,0-1.354,0.201-1.941,0.601c-0.59,0.4-0.883,0.927-0.883,1.58
		c0,0.416,0.134,0.816,0.402,1.202c0.27,0.386,0.631,0.771,1.085,1.157s0.966,0.757,1.538,1.113c0.571,0.356,1.16,0.697,1.766,1.023
		l1.664,0.89c1.311,0.712,2.387,1.402,3.228,2.069c0.841,0.668,1.513,1.365,2.018,2.092c0.505,0.727,0.857,1.506,1.06,2.336
		C135.212,71.023,135.313,71.928,135.313,72.906z"/>
	<path fill="#316598" d="M150.495,67.573c0,0.267-0.168,0.399-0.504,0.399h-13.167c-0.303,0-0.454-0.133-0.454-0.399v-3.152
		c0-0.236,0.151-0.355,0.454-0.355h13.167c0.336,0,0.504,0.119,0.504,0.355V67.573z"/>
	<path fill="#316598" d="M177.943,78.679c0,0.623-0.144,1.03-0.429,1.223c-0.287,0.193-0.833,0.289-1.641,0.289h-7.25
		c-0.773,0-1.295-0.119-1.564-0.356s-0.404-0.623-0.404-1.157c0-0.297,0.118-0.942,0.354-1.936s0.488-2.254,0.758-3.782
		c0.269-1.527,0.521-3.292,0.756-5.295c0.234-2.002,0.352-4.16,0.352-6.474v-1.157c-3.023,0-5.182,0.638-6.475,1.914
		s-1.905,2.966-1.838,5.072c0.033,1.246,0.15,2.507,0.354,3.782c0.201,1.275,0.42,2.455,0.655,3.537
		c0.235,1.083,0.446,2.017,0.631,2.803s0.278,1.298,0.278,1.535c0,0.623-0.144,1.031-0.43,1.224s-0.834,0.289-1.645,0.289h-7.219
		c-0.808,0-1.346-0.118-1.615-0.355s-0.403-0.623-0.403-1.156c0-0.296,0.118-0.94,0.353-1.934c0.236-0.993,0.496-2.253,0.783-3.779
		c0.285-1.526,0.546-3.29,0.781-5.291c0.234-2,0.352-4.157,0.352-6.469v-2.312c0-1.689-0.009-3.112-0.025-4.268
		c-0.017-1.156-0.042-2.134-0.076-2.934c-0.033-0.8-0.066-1.46-0.101-1.979s-0.067-0.978-0.101-1.378
		c-0.034-0.4-0.06-0.778-0.076-1.133s-0.025-0.771-0.025-1.245c0-0.474,0.102-0.83,0.303-1.067c0.203-0.237,0.607-0.356,1.213-0.356
		h4.498c0.605,0,1.01,0.119,1.213,0.355c0.201,0.237,0.303,0.592,0.303,1.066c0,0.503-0.008,0.933-0.025,1.288
		c-0.016,0.355-0.041,0.733-0.073,1.132c-0.032,0.4-0.058,0.866-0.073,1.399c-0.017,0.533-0.041,1.214-0.074,2.043
		c-0.032,0.829-0.057,1.851-0.073,3.065s-0.024,2.709-0.024,4.486c1.545-1.152,2.982-1.943,4.309-2.372
		c1.328-0.429,2.797-0.687,4.41-0.776c-0.034-1.866-0.076-3.333-0.127-4.399s-0.094-1.926-0.127-2.578
		c-0.034-0.651-0.068-1.2-0.102-1.644c-0.034-0.444-0.051-0.992-0.051-1.645c0-0.474,0.092-0.829,0.277-1.066
		c0.184-0.237,0.596-0.355,1.232-0.355h4.43c0.638,0,1.057,0.119,1.258,0.356s0.303,0.593,0.303,1.067
		c0,0.504-0.008,0.934-0.025,1.29c-0.016,0.355-0.041,0.726-0.073,1.111s-0.058,0.837-0.073,1.356
		c-0.017,0.519-0.041,1.178-0.074,1.979c-0.032,0.8-0.057,1.778-0.073,2.934c-0.017,1.156-0.024,2.579-0.024,4.268v2.312
		c0,2.312,0.115,4.468,0.346,6.469c0.23,2.001,0.489,3.764,0.775,5.291s0.547,2.786,0.782,3.779S177.943,78.383,177.943,78.679z"/>
	<path fill="#316598" d="M199.445,63.203c0,0.859-0.144,1.445-0.43,1.756s-0.901,0.555-1.843,0.733l-11.821,2.223
		c0,0.918,0.144,1.792,0.431,2.622s0.727,1.563,1.316,2.2c0.592,0.637,1.352,1.148,2.279,1.534c0.93,0.385,2.051,0.578,3.365,0.578
		c1.211,0,2.119-0.104,2.725-0.311s1.061-0.438,1.363-0.689s0.521-0.481,0.656-0.689s0.336-0.312,0.605-0.312s0.496,0.2,0.682,0.601
		c0.185,0.4,0.277,0.941,0.277,1.623c0,1.628-0.631,2.93-1.893,3.907s-3.104,1.465-5.526,1.465h-2.676
		c-1.817,0-3.366-0.208-4.646-0.622s-2.331-1.111-3.156-2.088c-0.824-0.978-1.43-2.281-1.816-3.91
		c-0.388-1.629-0.581-3.658-0.581-6.087c0-2.785,0.21-5.125,0.63-7.021c0.421-1.896,1.043-3.429,1.867-4.599
		s1.834-2.007,3.027-2.511c1.195-0.503,2.565-0.755,4.113-0.755h2.068c1.211,0,2.363,0.215,3.456,0.645s2.052,1.074,2.876,1.934
		s1.473,1.94,1.943,3.244S199.445,61.484,199.445,63.203z M191.633,61.859c0-0.533-0.06-1.104-0.177-1.712
		c-0.119-0.607-0.244-1.119-0.379-1.534c-0.371-1.126-0.818-1.89-1.341-2.29s-1.138-0.601-1.846-0.601
		c-0.506,0-0.944,0.156-1.315,0.467s-0.666,0.749-0.885,1.312s-0.388,1.215-0.506,1.957s-0.177,1.556-0.177,2.445v3.735l4.248-1.111
		c0.978-0.267,1.618-0.571,1.922-0.912S191.633,62.689,191.633,61.859z"/>
	<path fill="#316598" d="M219.258,58.854c0,0.741-0.025,1.349-0.076,1.824s-0.151,0.882-0.304,1.223
		c-0.151,0.341-0.387,0.637-0.707,0.889s-0.734,0.512-1.24,0.778c-0.641,0.326-1.35,0.586-2.125,0.778
		c-0.775,0.193-1.281,0.289-1.517,0.289c-0.202,0-0.304-0.074-0.304-0.223c0-0.326,0.092-0.807,0.277-1.445
		c0.184-0.637,0.276-1.341,0.276-2.112c0-1.274-0.236-2.193-0.708-2.757c-0.473-0.563-1.028-0.845-1.668-0.845
		c-0.338,0-0.691,0.089-1.063,0.267s-0.717,0.497-1.037,0.956s-0.582,1.089-0.783,1.889c-0.203,0.8-0.304,1.837-0.304,3.111
		c0,2.223,0.116,4.208,0.349,5.957s0.491,3.267,0.777,4.556s0.547,2.341,0.782,3.156s0.354,1.371,0.354,1.667
		c0,0.563-0.135,0.934-0.403,1.111c-0.27,0.178-0.774,0.267-1.515,0.267h-6.392c-0.774,0-1.271-0.096-1.489-0.289
		s-0.327-0.556-0.327-1.089c0-0.296,0.117-0.852,0.353-1.667c0.235-0.814,0.496-1.866,0.782-3.155
		c0.286-1.289,0.547-2.807,0.782-4.555c0.235-1.748,0.354-3.732,0.354-5.955c0-1.096-0.034-2.162-0.101-3.199
		c-0.068-1.037-0.135-1.978-0.203-2.822c-0.066-0.844-0.134-1.555-0.201-2.133c-0.067-0.578-0.101-0.956-0.101-1.133
		c0-0.474,0.05-0.77,0.151-0.889c0.101-0.118,0.42-0.178,0.957-0.178h4.072c0.301,0,0.511,0.082,0.628,0.244s0.2,0.407,0.251,0.732
		s0.092,0.725,0.126,1.197c0.033,0.473,0.101,1.005,0.201,1.597c1.081-1.328,2.085-2.309,3.015-2.943
		c0.928-0.634,2.051-0.952,3.368-0.952c0.607,0,1.198,0.111,1.772,0.332c0.574,0.222,1.08,0.568,1.52,1.041s0.785,1.077,1.039,1.815
		C219.131,56.929,219.258,57.817,219.258,58.854z"/>
	<path fill="#316598" d="M254.046,79.435c0,0.504-0.236,0.756-0.707,0.756h-8.523c-0.672,0-1.009-0.311-1.009-0.933
		c0-0.385,0.108-1.037,0.327-1.955s0.471-2.021,0.758-3.31c0.285-1.289,0.538-2.74,0.757-4.354s0.328-3.325,0.328-5.131
		c0-0.8-0.034-1.651-0.101-2.555c-0.068-0.903-0.202-1.726-0.404-2.466s-0.505-1.355-0.908-1.844
		c-0.404-0.489-0.959-0.733-1.665-0.733c-0.505,0-0.984,0.178-1.438,0.533s-0.85,0.867-1.186,1.533
		c-0.337,0.667-0.605,1.459-0.808,2.377c-0.202,0.918-0.303,1.955-0.303,3.11c0,1.777,0.108,3.488,0.327,5.131
		c0.219,1.644,0.463,3.132,0.732,4.465s0.514,2.451,0.732,3.354s0.328,1.503,0.328,1.799c0,0.652-0.371,0.978-1.111,0.978h-7.424
		c-0.572,0-0.968-0.089-1.187-0.267s-0.328-0.444-0.328-0.8c0-0.089,0.042-0.4,0.126-0.933s0.202-1.207,0.354-2.022
		c0.151-0.814,0.303-1.733,0.454-2.755s0.303-2.066,0.454-3.133s0.27-2.118,0.354-3.155s0.126-1.985,0.126-2.844
		c0-0.889-0.034-1.762-0.101-2.622c-0.067-0.859-0.201-1.622-0.402-2.289s-0.486-1.207-0.855-1.622
		c-0.368-0.415-0.838-0.622-1.407-0.622c-0.503,0-0.989,0.133-1.458,0.4c-0.47,0.267-0.889,0.696-1.258,1.289
		c-0.368,0.593-0.662,1.378-0.879,2.355c-0.219,0.978-0.327,2.177-0.327,3.599c0,1.807,0.109,3.518,0.328,5.132
		c0.219,1.615,0.454,3.059,0.706,4.333c0.253,1.274,0.488,2.348,0.707,3.222s0.328,1.489,0.328,1.844
		c0,0.593-0.404,0.889-1.211,0.889h-6.674c-0.807,0-1.346-0.118-1.615-0.355c-0.269-0.237-0.402-0.622-0.402-1.155
		c0-0.296,0.117-0.844,0.353-1.644s0.496-1.837,0.782-3.111s0.547-2.777,0.782-4.51s0.354-3.71,0.354-5.933
		c0-1.096-0.034-2.162-0.101-3.199c-0.068-1.037-0.135-1.978-0.203-2.822c-0.066-0.844-0.134-1.555-0.201-2.133
		c-0.067-0.578-0.101-0.956-0.101-1.133c0-0.474,0.118-0.77,0.353-0.889c0.236-0.118,0.539-0.178,0.91-0.178h4.049
		c0.37,0,0.614,0.082,0.732,0.245c0.117,0.163,0.168,0.423,0.151,0.778c-0.017,0.356-0.067,0.838-0.151,1.445
		c-0.084,0.608-0.126,1.356-0.126,2.246c1.378-1.749,2.646-3.06,3.806-3.934c1.16-0.874,2.547-1.311,4.16-1.311
		c0.504,0,0.982,0.052,1.437,0.156s0.907,0.296,1.361,0.578c0.454,0.282,0.925,0.697,1.411,1.245
		c0.488,0.548,1.018,1.267,1.588,2.156c1.279-1.517,2.414-2.631,3.406-3.345c0.992-0.713,2.078-1.07,3.256-1.07
		c1.816,0,3.18,0.556,4.088,1.667s1.362,2.66,1.362,4.646c0,1.038-0.011,2.112-0.031,3.223s-0.031,2.097-0.031,2.957
		c0,1.927,0.109,3.705,0.328,5.335c0.219,1.63,0.454,3.075,0.706,4.335s0.488,2.312,0.707,3.156S254.046,79.08,254.046,79.435z"/>
	<path fill="#316598" d="M275.3,79.346c0,0.326-0.068,0.549-0.203,0.667c-0.135,0.119-0.386,0.178-0.754,0.178h-13.129
		c-1.043,0-1.943-0.126-2.701-0.378s-1.389-0.682-1.893-1.289c-0.506-0.607-0.876-1.415-1.111-2.422
		c-0.236-1.008-0.354-2.267-0.354-3.779c0-1.422,0.151-2.674,0.454-3.756c0.303-1.082,0.833-2.104,1.591-3.067
		c0.757-0.963,1.775-1.911,3.055-2.845c1.278-0.934,2.877-1.949,4.796-3.045l2.423-1.378c0-0.563-0.311-1.06-0.934-1.489
		s-1.287-0.645-1.994-0.645c-1.178,0-2.104,0.267-2.777,0.801c-0.673,0.534-1.16,1.349-1.463,2.445
		c-0.068,0.148-0.236,0.29-0.506,0.423s-0.689,0.2-1.262,0.2c-0.606,0-1.179-0.244-1.717-0.733
		c-0.539-0.489-0.808-1.223-0.808-2.202c0-1.246,0.647-2.254,1.943-3.026s3.055-1.158,5.276-1.158h1.918
		c1.516,0,2.861,0.17,4.039,0.511s2.162,0.926,2.953,1.756s1.396,1.919,1.818,3.268c0.42,1.349,0.631,3.016,0.631,5.001v8.537
		c0,1.245,0.033,2.283,0.102,3.113c0.066,0.83,0.15,1.519,0.252,2.067c0.101,0.548,0.185,0.993,0.252,1.333
		S275.3,79.08,275.3,79.346z M268.593,60.45c-1.282,0.829-2.361,1.651-3.238,2.465c-0.878,0.814-1.578,1.629-2.102,2.443
		c-0.522,0.814-0.894,1.614-1.113,2.398c-0.219,0.785-0.328,1.577-0.328,2.376c0,1.599,0.32,2.769,0.961,3.509
		s1.502,1.11,2.582,1.11c0.843-0.089,1.492-0.392,1.947-0.911c0.455-0.518,0.776-1.147,0.962-1.888s0.286-1.518,0.304-2.332
		c0.017-0.814,0.025-1.562,0.025-2.243V60.45z"/>
	<path fill="#316598" d="M299.969,79.168c0,0.682-0.454,1.022-1.362,1.022h-7.563c-0.572,0-0.943-0.074-1.111-0.222
		c-0.168-0.148-0.252-0.43-0.252-0.845c0-0.237,0.109-0.63,0.328-1.178c0.219-0.548,0.463-1.407,0.732-2.578
		c0.269-1.171,0.513-2.742,0.731-4.713c0.219-1.971,0.328-4.512,0.328-7.625c0-0.682-0.017-1.4-0.051-2.156
		s-0.126-1.445-0.278-2.067c-0.15-0.622-0.404-1.141-0.758-1.556s-0.85-0.623-1.489-0.623c-0.505,0-1.003,0.17-1.491,0.511
		s-0.934,0.815-1.338,1.423s-0.725,1.326-0.96,2.156s-0.354,1.749-0.354,2.756c0,2.223,0.115,4.201,0.347,5.935
		c0.23,1.734,0.488,3.238,0.774,4.512s0.547,2.312,0.782,3.112s0.354,1.349,0.354,1.645c0,0.623-0.151,1.03-0.454,1.223
		c-0.303,0.193-0.841,0.289-1.615,0.289h-6.031c-0.808,0-1.347-0.118-1.615-0.355s-0.403-0.623-0.403-1.156
		c0-0.296,0.117-0.845,0.354-1.645c0.234-0.8,0.496-1.838,0.781-3.112c0.287-1.274,0.547-2.779,0.781-4.513
		c0.234-1.734,0.353-3.712,0.353-5.936c0-1.097-0.034-2.164-0.101-3.201c-0.068-1.038-0.135-1.979-0.203-2.824
		c-0.066-0.845-0.134-1.556-0.201-2.134s-0.101-0.956-0.101-1.134c0-0.474,0.067-0.771,0.202-0.889
		c0.134-0.118,0.486-0.178,1.057-0.178h3.922c0.637,0,0.996,0.274,1.08,0.823s0.126,1.534,0.126,2.957
		c1.414-1.512,2.66-2.616,3.738-3.313c1.077-0.696,2.173-1.045,3.284-1.045c1.717,0,3.106,0.452,4.168,1.356
		c1.061,0.904,1.591,2.334,1.591,4.291v6.847c0,1.957,0.101,3.706,0.303,5.247s0.421,2.89,0.656,4.046
		c0.235,1.156,0.454,2.134,0.656,2.935C299.868,78.057,299.969,78.694,299.969,79.168z"/>
	<path fill="#316598" d="M324.543,79.168c0,0.682-0.454,1.022-1.362,1.022h-7.563c-0.572,0-0.943-0.074-1.111-0.222
		c-0.168-0.148-0.252-0.43-0.252-0.845c0-0.237,0.109-0.63,0.328-1.178c0.219-0.548,0.463-1.407,0.732-2.578
		c0.269-1.171,0.513-2.742,0.731-4.713c0.219-1.971,0.328-4.512,0.328-7.625c0-0.682-0.017-1.4-0.051-2.156
		s-0.126-1.445-0.278-2.067c-0.15-0.622-0.404-1.141-0.758-1.556s-0.85-0.623-1.489-0.623c-0.505,0-1.003,0.17-1.491,0.511
		s-0.934,0.815-1.338,1.423s-0.725,1.326-0.96,2.156s-0.354,1.749-0.354,2.756c0,2.223,0.115,4.201,0.347,5.935
		c0.23,1.734,0.488,3.238,0.774,4.512s0.547,2.312,0.782,3.112s0.354,1.349,0.354,1.645c0,0.623-0.151,1.03-0.454,1.223
		c-0.303,0.193-0.841,0.289-1.615,0.289h-6.031c-0.808,0-1.347-0.118-1.615-0.355s-0.403-0.623-0.403-1.156
		c0-0.296,0.117-0.845,0.354-1.645c0.234-0.8,0.496-1.838,0.781-3.112c0.287-1.274,0.547-2.779,0.781-4.513
		c0.234-1.734,0.353-3.712,0.353-5.936c0-1.097-0.034-2.164-0.101-3.201c-0.068-1.038-0.135-1.979-0.203-2.824
		c-0.066-0.845-0.134-1.556-0.201-2.134s-0.101-0.956-0.101-1.134c0-0.474,0.067-0.771,0.202-0.889
		c0.134-0.118,0.486-0.178,1.057-0.178h3.922c0.637,0,0.996,0.274,1.08,0.823s0.126,1.534,0.126,2.957
		c1.414-1.512,2.66-2.616,3.738-3.313c1.077-0.696,2.173-1.045,3.284-1.045c1.717,0,3.106,0.452,4.168,1.356
		c1.061,0.904,1.591,2.334,1.591,4.291v6.847c0,1.957,0.101,3.706,0.303,5.247s0.421,2.89,0.656,4.046
		c0.235,1.156,0.454,2.134,0.656,2.935C324.442,78.057,324.543,78.694,324.543,79.168z"/>
	<path fill="#316598" d="M368.786,78.679c0,0.623-0.143,1.03-0.43,1.223c-0.285,0.193-0.832,0.289-1.64,0.289h-7.25
		c-0.774,0-1.296-0.119-1.564-0.356c-0.27-0.237-0.403-0.623-0.403-1.157c0-0.297,0.117-0.942,0.353-1.936s0.487-2.254,0.757-3.782
		c0.27-1.527,0.521-3.292,0.756-5.295c0.234-2.002,0.353-4.16,0.353-6.474v-1.157c-3.022,0-5.181,0.638-6.474,1.914
		s-1.906,2.966-1.839,5.072c0.033,1.246,0.151,2.507,0.353,3.782c0.202,1.275,0.421,2.455,0.656,3.537
		c0.235,1.083,0.445,2.017,0.631,2.803s0.277,1.298,0.277,1.535c0,0.623-0.143,1.031-0.429,1.224s-0.834,0.289-1.645,0.289h-7.219
		c-0.808,0-1.347-0.118-1.615-0.355s-0.403-0.623-0.403-1.156c0-0.296,0.117-0.94,0.354-1.934c0.234-0.993,0.496-2.253,0.781-3.779
		c0.287-1.526,0.547-3.29,0.781-5.291c0.234-2,0.353-4.157,0.353-6.469v-2.312c0-1.689-0.009-3.112-0.025-4.268
		c-0.017-1.156-0.042-2.134-0.075-2.934c-0.034-0.8-0.068-1.46-0.102-1.979s-0.067-0.978-0.102-1.378
		c-0.033-0.4-0.059-0.778-0.075-1.133s-0.024-0.771-0.024-1.245c0-0.474,0.1-0.83,0.303-1.067c0.201-0.237,0.605-0.356,1.213-0.356
		h4.496c0.607,0,1.012,0.119,1.213,0.355c0.203,0.237,0.304,0.592,0.304,1.066c0,0.503-0.009,0.933-0.024,1.288
		c-0.018,0.355-0.041,0.733-0.074,1.132c-0.033,0.4-0.057,0.866-0.073,1.399s-0.041,1.214-0.073,2.043
		c-0.033,0.829-0.058,1.851-0.074,3.065s-0.024,2.709-0.024,4.486c1.546-1.152,2.981-1.943,4.31-2.372
		c1.326-0.429,2.797-0.687,4.409-0.776c-0.034-1.866-0.076-3.333-0.127-4.399s-0.093-1.926-0.127-2.578
		c-0.034-0.651-0.067-1.2-0.102-1.644s-0.051-0.992-0.051-1.645c0-0.474,0.093-0.829,0.276-1.066
		c0.186-0.237,0.596-0.355,1.234-0.355h4.429c0.638,0,1.058,0.119,1.259,0.356s0.302,0.593,0.302,1.067
		c0,0.504-0.009,0.934-0.024,1.29c-0.018,0.355-0.041,0.726-0.074,1.111s-0.057,0.837-0.073,1.356s-0.041,1.178-0.073,1.979
		c-0.033,0.8-0.058,1.778-0.074,2.934c-0.017,1.156-0.024,2.579-0.024,4.268v2.312c0,2.312,0.115,4.468,0.347,6.469
		c0.23,2.001,0.488,3.764,0.774,5.291s0.547,2.786,0.782,3.779S368.786,78.383,368.786,78.679z"/>
	<path fill="#316598" d="M389.55,78.144c0,0.831-0.168,1.38-0.506,1.647c-0.336,0.267-0.926,0.4-1.768,0.4h-10.664
		c-1.078,0-2.055-0.156-2.931-0.467s-1.626-0.882-2.249-1.713s-1.104-1.973-1.439-3.426c-0.338-1.453-0.506-3.336-0.506-5.648v-2.49
		c0-1.304,0.059-2.579,0.177-3.824s0.261-2.401,0.429-3.469s0.362-2.016,0.581-2.846s0.412-1.467,0.58-1.912
		c0.202-0.533,0.388-0.882,0.556-1.045s0.454-0.245,0.857-0.245h3.635c0.202,0,0.328,0.089,0.379,0.267s0.076,0.355,0.076,0.533
		c0,0.089-0.034,0.512-0.102,1.268s-0.152,1.675-0.252,2.757c-0.102,1.082-0.186,2.238-0.253,3.469s-0.101,2.379-0.101,3.446
		c0,1.038,0.033,2.113,0.102,3.224c0.066,1.112,0.227,2.127,0.48,3.046c0.252,0.919,0.631,1.683,1.137,2.29s1.197,0.911,2.074,0.911
		c1.078,0,1.929-0.623,2.553-1.868c0.623-1.245,0.936-3.305,0.936-6.181c0-1.452-0.033-2.86-0.102-4.224
		c-0.066-1.364-0.143-2.594-0.227-3.691s-0.16-2.016-0.228-2.757s-0.101-1.23-0.101-1.467c0-0.682,0.219-1.023,0.656-1.023h5.203
		c0.371,0,0.606,0.111,0.707,0.333c0.102,0.223,0.152,0.556,0.152,1c0,0.089-0.009,0.341-0.026,0.756s-0.034,1.082-0.052,2.001
		s-0.035,2.142-0.053,3.668c-0.018,1.527-0.025,3.446-0.025,5.759c0,1.127,0.018,2.313,0.052,3.558s0.069,2.424,0.104,3.536
		c0.035,1.112,0.069,2.069,0.104,2.87C389.532,77.387,389.55,77.906,389.55,78.144z M378.956,47.153
		c0,0.829-0.285,1.532-0.856,2.109s-1.292,0.866-2.165,0.866s-1.604-0.289-2.191-0.866s-0.881-1.28-0.881-2.109
		s0.293-1.525,0.881-2.087s1.318-0.844,2.191-0.844s1.594,0.281,2.165,0.844S378.956,46.324,378.956,47.153z M387.769,47.153
		c0,0.829-0.27,1.532-0.809,2.109s-1.264,0.866-2.172,0.866c-0.943,0-1.693-0.289-2.248-0.866c-0.557-0.577-0.834-1.28-0.834-2.109
		s0.277-1.525,0.834-2.087c0.555-0.563,1.305-0.844,2.248-0.844c0.908,0,1.633,0.281,2.172,0.844S387.769,46.324,387.769,47.153z"/>
	<path fill="#316598" d="M410.706,58.854c0,0.741-0.025,1.349-0.076,1.824s-0.152,0.882-0.303,1.223
		c-0.152,0.341-0.389,0.637-0.709,0.889s-0.732,0.512-1.238,0.778c-0.642,0.326-1.35,0.586-2.125,0.778
		c-0.775,0.193-1.281,0.289-1.518,0.289c-0.202,0-0.303-0.074-0.303-0.223c0-0.326,0.092-0.807,0.275-1.445
		c0.186-0.637,0.277-1.341,0.277-2.112c0-1.274-0.236-2.193-0.708-2.757s-1.028-0.845-1.669-0.845c-0.337,0-0.691,0.089-1.063,0.267
		s-0.716,0.497-1.036,0.956s-0.581,1.089-0.784,1.889c-0.201,0.8-0.303,1.837-0.303,3.111c0,2.223,0.116,4.208,0.349,5.957
		s0.491,3.267,0.777,4.556s0.547,2.341,0.782,3.156s0.354,1.371,0.354,1.667c0,0.563-0.135,0.934-0.404,1.111
		s-0.773,0.267-1.514,0.267h-6.392c-0.774,0-1.271-0.096-1.489-0.289s-0.328-0.556-0.328-1.089c0-0.296,0.118-0.852,0.354-1.667
		c0.235-0.814,0.496-1.866,0.782-3.155c0.286-1.289,0.547-2.807,0.782-4.555c0.235-1.748,0.354-3.732,0.354-5.955
		c0-1.096-0.033-2.162-0.102-3.199c-0.066-1.037-0.135-1.978-0.201-2.822c-0.068-0.844-0.135-1.555-0.202-2.133
		c-0.067-0.578-0.101-0.956-0.101-1.133c0-0.474,0.051-0.77,0.151-0.889c0.101-0.118,0.42-0.178,0.957-0.178h4.071
		c0.303,0,0.512,0.082,0.629,0.244s0.201,0.407,0.251,0.732s0.093,0.725,0.126,1.197c0.033,0.473,0.101,1.005,0.201,1.597
		c1.08-1.328,2.086-2.309,3.014-2.943c0.93-0.634,2.052-0.952,3.369-0.952c0.607,0,1.198,0.111,1.772,0.332
		c0.574,0.222,1.081,0.568,1.521,1.041c0.438,0.472,0.785,1.077,1.038,1.815C410.579,56.929,410.706,57.817,410.706,58.854z"/>
	<path fill="#316598" d="M422.804,79.524c0,0.237-0.094,0.408-0.278,0.511c-0.185,0.104-0.53,0.156-1.034,0.156h-7.33
		c-1.011,0-1.516-0.459-1.516-1.379c0-0.622,0.059-1.697,0.176-3.224c0.118-1.527,0.244-3.261,0.379-5.204s0.261-3.937,0.379-5.982
		c0.117-2.046,0.177-3.899,0.177-5.559v-2.402h-1.11c-0.842,0-1.262-0.297-1.262-0.892v-1.605c0-0.564,0.42-0.847,1.262-0.847h1.267
		v-1.29c0-0.741-0.067-1.378-0.202-1.912c-0.135-0.533-0.277-0.993-0.429-1.378c-0.151-0.385-0.286-0.696-0.403-0.934
		c-0.119-0.237-0.178-0.43-0.178-0.579c0-0.148,0.102-0.229,0.303-0.244c0.202-0.015,0.556-0.097,1.061-0.245l8.449-2.179h0.051
		c0,0.119-0.144,0.43-0.43,0.934s-0.605,1.149-0.959,1.935s-0.672,1.682-0.959,2.69c-0.285,1.008-0.429,2.075-0.429,3.202h1.413
		c0.908,0,1.363,0.283,1.363,0.847v1.605c0,0.595-0.455,0.892-1.363,0.892h-1.476v9.962c0,1.602,0.084,3.166,0.253,4.692
		c0.168,1.527,0.622,3.047,1.362,4.559l0.303,0.623c0.303,0.593,0.571,1.224,0.808,1.891
		C422.685,78.834,422.804,79.287,422.804,79.524z"/>
	<path fill="#316598" d="M447.313,79.168c0,0.385-0.084,0.652-0.252,0.8c-0.169,0.148-0.488,0.222-0.959,0.222h-7.715
		c-0.572,0-0.941-0.074-1.109-0.222c-0.168-0.148-0.252-0.43-0.252-0.845c0-0.237,0.108-0.63,0.327-1.178
		c0.219-0.548,0.462-1.407,0.731-2.578s0.514-2.742,0.732-4.713c0.219-1.971,0.328-4.512,0.328-7.625c0-0.682-0.018-1.4-0.051-2.156
		s-0.125-1.445-0.276-2.067c-0.151-0.622-0.402-1.141-0.754-1.556c-0.353-0.415-0.847-0.623-1.483-0.623
		c-0.503,0-0.998,0.17-1.483,0.511c-0.486,0.341-0.931,0.815-1.333,1.423s-0.721,1.326-0.955,2.156s-0.352,1.749-0.352,2.756
		c0,2.223,0.116,4.208,0.349,5.957c0.232,1.749,0.491,3.268,0.777,4.557s0.547,2.341,0.782,3.156
		c0.235,0.815,0.354,1.371,0.354,1.667c0,0.623-0.127,1.008-0.379,1.156c-0.252,0.148-0.766,0.222-1.539,0.222h-6.423
		c-0.774,0-1.271-0.089-1.489-0.267s-0.328-0.548-0.328-1.112c0-0.296,0.118-0.852,0.354-1.667c0.235-0.815,0.496-1.867,0.782-3.157
		c0.286-1.289,0.547-2.808,0.782-4.557c0.235-1.749,0.354-3.734,0.354-5.958v-4.579c0-1.689-0.009-3.112-0.025-4.268
		c-0.017-1.156-0.042-2.134-0.076-2.934c-0.033-0.8-0.066-1.46-0.101-1.979s-0.067-0.978-0.101-1.378
		c-0.034-0.4-0.06-0.778-0.076-1.133s-0.025-0.771-0.025-1.245c0-0.474,0.084-0.83,0.253-1.067c0.168-0.237,0.556-0.356,1.163-0.356
		h3.49c0.641,0,1.045,0.119,1.214,0.356s0.253,0.593,0.253,1.067c0,0.771-0.018,1.46-0.051,2.067s-0.058,1.297-0.074,2.067
		s-0.042,1.697-0.075,2.779s-0.05,2.467-0.05,4.157c1.478-1.572,2.754-2.713,3.828-3.425s2.166-1.068,3.273-1.068
		c1.713,0,3.098,0.452,4.155,1.356s1.587,2.334,1.587,4.291v6.847c0,1.957,0.101,3.706,0.303,5.247s0.421,2.89,0.656,4.046
		c0.235,1.156,0.454,2.134,0.656,2.935C447.212,78.057,447.313,78.694,447.313,79.168z"/>
</g>
<g>
	<path fill="#626162" d="M68.505,94.222c1.16-0.172,2.512-0.3,3.994-0.3c2.685,0,4.596,0.601,5.863,1.782
		c1.31,1.181,2.062,2.878,2.062,5.219c0,2.362-0.751,4.295-2.083,5.626c-1.375,1.353-3.608,2.083-6.421,2.083
		c-1.353,0-2.448-0.043-3.415-0.172V94.222z M70.395,107.043c0.473,0.086,1.16,0.086,1.89,0.086
		c3.995,0.021,6.164-2.233,6.164-6.142c0.021-3.458-1.911-5.583-5.863-5.583c-0.966,0-1.696,0.086-2.19,0.193V107.043z"/>
	<path fill="#626162" d="M83.967,103.628c0.043,2.556,1.653,3.608,3.543,3.608c1.353,0,2.19-0.236,2.877-0.515l0.344,1.331
		c-0.666,0.301-1.826,0.666-3.479,0.666c-3.178,0-5.111-2.126-5.111-5.24c0-3.157,1.869-5.626,4.896-5.626
		c3.393,0,4.273,2.985,4.273,4.896c0,0.387-0.021,0.687-0.064,0.902L83.967,103.628z M89.486,102.275
		c0.021-1.181-0.494-3.071-2.599-3.071c-1.933,0-2.749,1.761-2.899,3.071H89.486z"/>
	<path fill="#626162" d="M93.652,100.923c0-1.096-0.021-1.955-0.086-2.813h1.675l0.107,1.696h0.043
		c0.516-0.966,1.718-1.933,3.436-1.933c1.439,0,3.672,0.859,3.672,4.424v6.207h-1.89v-5.992c0-1.675-0.623-3.092-2.405-3.092
		c-1.224,0-2.19,0.88-2.534,1.933c-0.086,0.236-0.129,0.58-0.129,0.88v6.271h-1.89V100.923z"/>
	<path fill="#626162" d="M107.461,102.877h0.043c0.258-0.365,0.601-0.837,0.902-1.181l3.071-3.586h2.254l-4.016,4.273l4.574,6.121
		h-2.298l-3.565-5.004l-0.966,1.095v3.909h-1.89V93.256h1.89V102.877z"/>
	<path fill="#626162" d="M116.028,100.923c0-1.096-0.043-1.955-0.086-2.813h1.654l0.086,1.675h0.064
		c0.579-0.988,1.546-1.912,3.285-1.912c1.396,0,2.47,0.859,2.921,2.083h0.043c0.322-0.601,0.752-1.031,1.181-1.353
		c0.623-0.473,1.289-0.73,2.276-0.73c1.396,0,3.437,0.902,3.437,4.51v6.121h-1.847v-5.884c0-2.019-0.752-3.2-2.255-3.2
		c-1.096,0-1.912,0.794-2.255,1.696c-0.086,0.279-0.15,0.623-0.15,0.945v6.442h-1.847v-6.228c0-1.675-0.73-2.856-2.17-2.856
		c-1.159,0-2.04,0.945-2.341,1.89c-0.106,0.279-0.149,0.602-0.149,0.923v6.271h-1.848V100.923z"/>
	<path fill="#626162" d="M141.263,106.012c0,0.902,0.043,1.783,0.15,2.491h-1.696l-0.172-1.31h-0.064
		c-0.559,0.816-1.696,1.546-3.179,1.546c-2.104,0-3.178-1.482-3.178-2.985c0-2.512,2.233-3.887,6.249-3.865v-0.215
		c0-0.859-0.236-2.427-2.362-2.405c-0.988,0-1.997,0.279-2.728,0.773l-0.43-1.267c0.859-0.537,2.126-0.902,3.437-0.902
		c3.199,0,3.973,2.169,3.973,4.252V106.012z M139.416,103.199c-2.062-0.043-4.402,0.322-4.402,2.341
		c0,1.245,0.815,1.804,1.761,1.804c1.375,0,2.255-0.859,2.556-1.739c0.064-0.193,0.086-0.408,0.086-0.602V103.199z"/>
	<path fill="#626162" d="M144.29,93.256h1.891v15.248h-1.891V93.256z"/>
	<path fill="#626162" d="M149.315,101.502c0-1.332-0.021-2.405-0.086-3.393h1.697l0.107,1.782h0.043
		c0.751-1.288,1.997-2.019,3.672-2.019c2.534,0,4.424,2.126,4.424,5.283c0,3.736-2.298,5.583-4.725,5.583
		c-1.396,0-2.577-0.602-3.2-1.632h-0.042v5.648h-1.891V101.502z M151.206,104.273c0,0.257,0.021,0.537,0.085,0.773
		c0.322,1.31,1.482,2.212,2.813,2.212c1.997,0,3.157-1.632,3.157-4.016c0-2.083-1.074-3.866-3.071-3.866
		c-1.288,0-2.513,0.902-2.878,2.319c-0.043,0.258-0.106,0.537-0.106,0.773V104.273z"/>
	<path fill="#626162" d="M161.706,108.503v-8.955h-1.438v-1.439h1.438v-0.494c0-1.46,0.344-2.792,1.225-3.629
		c0.708-0.688,1.653-0.967,2.513-0.967c0.687,0,1.245,0.15,1.61,0.301l-0.236,1.46c-0.301-0.129-0.666-0.236-1.224-0.236
		c-1.59,0-2.02,1.417-2.02,3.006v0.559h2.513v1.439h-2.491v8.955H161.706z"/>
	<path fill="#626162" d="M167.805,93.256h1.89v15.248h-1.89V93.256z"/>
	<path fill="#626162" d="M173.904,103.628c0.043,2.556,1.653,3.608,3.543,3.608c1.354,0,2.19-0.236,2.878-0.515l0.344,1.331
		c-0.666,0.301-1.825,0.666-3.479,0.666c-3.178,0-5.11-2.126-5.11-5.24c0-3.157,1.868-5.626,4.896-5.626
		c3.393,0,4.273,2.985,4.273,4.896c0,0.387-0.021,0.687-0.064,0.902L173.904,103.628z M179.423,102.275
		c0.021-1.181-0.493-3.071-2.598-3.071c-1.934,0-2.749,1.761-2.899,3.071H179.423z"/>
	<path fill="#626162" d="M192.479,106.979c0,2.405-0.493,3.844-1.481,4.768c-1.03,0.923-2.491,1.246-3.801,1.246
		c-1.246,0-2.62-0.301-3.458-0.859l0.473-1.46c0.688,0.451,1.761,0.837,3.05,0.837c1.933,0,3.35-1.009,3.35-3.65v-1.138h-0.043
		c-0.558,0.966-1.696,1.739-3.307,1.739c-2.577,0-4.424-2.19-4.424-5.09c0-3.522,2.298-5.498,4.703-5.498
		c1.804,0,2.77,0.923,3.242,1.783h0.043l0.064-1.546h1.675c-0.064,0.73-0.086,1.568-0.086,2.835V106.979z M190.59,102.189
		c0-0.3-0.021-0.58-0.107-0.837c-0.344-1.117-1.245-2.019-2.642-2.019c-1.804,0-3.092,1.525-3.092,3.952
		c0,2.019,1.052,3.736,3.07,3.736c1.182,0,2.234-0.73,2.62-1.954c0.107-0.301,0.15-0.666,0.15-1.009V102.189z"/>
	<path fill="#626162" d="M196.668,103.628c0.043,2.556,1.653,3.608,3.543,3.608c1.354,0,2.19-0.236,2.878-0.515l0.344,1.331
		c-0.666,0.301-1.825,0.666-3.479,0.666c-3.178,0-5.11-2.126-5.11-5.24c0-3.157,1.868-5.626,4.896-5.626
		c3.393,0,4.273,2.985,4.273,4.896c0,0.387-0.021,0.687-0.064,0.902L196.668,103.628z M202.187,102.275
		c0.021-1.181-0.493-3.071-2.598-3.071c-1.934,0-2.749,1.761-2.899,3.071H202.187z"/>
	<path fill="#626162" d="M204.721,111.167c0.473-1.289,1.052-3.586,1.288-5.154l2.104-0.215c-0.515,1.826-1.46,4.209-2.062,5.219
		L204.721,111.167z"/>
	<path fill="#626162" d="M215.866,103.951l-1.503,4.553h-1.933l4.918-14.474h2.255l4.939,14.474h-1.998l-1.546-4.553H215.866z
		 M220.612,102.49l-1.438-4.166c-0.301-0.945-0.516-1.804-0.73-2.642h-0.064c-0.193,0.837-0.43,1.74-0.708,2.62l-1.418,4.188
		H220.612z"/>
	<path fill="#626162" d="M235.045,105.668c0,1.074,0.021,2.019,0.086,2.835h-1.676l-0.107-1.697h-0.043
		c-0.472,0.838-1.589,1.933-3.436,1.933c-1.632,0-3.587-0.923-3.587-4.553v-6.078h1.891v5.734c0,1.976,0.622,3.329,2.319,3.329
		c1.267,0,2.147-0.88,2.49-1.739c0.107-0.258,0.172-0.602,0.172-0.967v-6.356h1.891V105.668z"/>
	<path fill="#626162" d="M237.921,106.592c0.58,0.343,1.568,0.73,2.513,0.73c1.354,0,1.997-0.666,1.997-1.546
		c0-0.902-0.536-1.396-1.911-1.911c-1.89-0.687-2.771-1.697-2.771-2.942c0-1.675,1.375-3.05,3.587-3.05
		c1.052,0,1.976,0.279,2.534,0.645l-0.451,1.353c-0.408-0.236-1.159-0.601-2.126-0.601c-1.117,0-1.718,0.644-1.718,1.417
		c0,0.88,0.601,1.267,1.954,1.782c1.782,0.666,2.728,1.568,2.728,3.136c0,1.847-1.439,3.135-3.866,3.135
		c-1.138,0-2.19-0.301-2.92-0.73L237.921,106.592z"/>
	<path fill="#626162" d="M246.684,93.256h1.89v6.507h0.043c0.666-1.16,1.869-1.89,3.544-1.89c2.577,0,4.381,2.147,4.381,5.283
		c0,3.736-2.362,5.583-4.682,5.583c-1.503,0-2.685-0.58-3.479-1.955h-0.043l-0.107,1.718h-1.633
		c0.064-0.708,0.086-1.761,0.086-2.685V93.256z M248.573,104.337c0,0.236,0.021,0.472,0.064,0.687
		c0.365,1.31,1.482,2.212,2.835,2.212c1.997,0,3.157-1.611,3.157-3.994c0-2.105-1.074-3.887-3.093-3.887
		c-1.288,0-2.491,0.902-2.856,2.319c-0.064,0.236-0.107,0.494-0.107,0.794V104.337z"/>
	<path fill="#626162" d="M266.226,106.012c0,0.902,0.043,1.783,0.15,2.491h-1.696l-0.172-1.31h-0.064
		c-0.559,0.816-1.696,1.546-3.179,1.546c-2.104,0-3.178-1.482-3.178-2.985c0-2.512,2.233-3.887,6.249-3.865v-0.215
		c0-0.859-0.236-2.427-2.362-2.405c-0.988,0-1.997,0.279-2.728,0.773l-0.43-1.267c0.859-0.537,2.126-0.902,3.437-0.902
		c3.199,0,3.973,2.169,3.973,4.252V106.012z M264.379,103.199c-2.062-0.043-4.402,0.322-4.402,2.341
		c0,1.245,0.815,1.804,1.761,1.804c1.375,0,2.255-0.859,2.556-1.739c0.064-0.193,0.086-0.408,0.086-0.602V103.199z"/>
	<path fill="#626162" d="M277.952,105.668c0,1.074,0.021,2.019,0.086,2.835h-1.676l-0.107-1.697h-0.043
		c-0.472,0.838-1.589,1.933-3.436,1.933c-1.633,0-3.587-0.923-3.587-4.553v-6.078h1.891v5.734c0,1.976,0.622,3.329,2.319,3.329
		c1.267,0,2.147-0.88,2.49-1.739c0.107-0.258,0.172-0.602,0.172-0.967v-6.356h1.891V105.668z"/>
	<path fill="#626162" d="M294.337,105.668c0,1.074,0.021,2.019,0.086,2.835h-1.676l-0.107-1.697h-0.043
		c-0.472,0.838-1.589,1.933-3.436,1.933c-1.633,0-3.587-0.923-3.587-4.553v-6.078h1.891v5.734c0,1.976,0.622,3.329,2.319,3.329
		c1.267,0,2.147-0.88,2.49-1.739c0.107-0.258,0.172-0.602,0.172-0.967v-6.356h1.891V105.668z"/>
	<path fill="#626162" d="M297.472,100.923c0-1.096-0.021-1.955-0.086-2.813h1.676l0.107,1.696h0.043
		c0.515-0.966,1.718-1.933,3.436-1.933c1.438,0,3.672,0.859,3.672,4.424v6.207h-1.89v-5.992c0-1.675-0.622-3.092-2.405-3.092
		c-1.224,0-2.19,0.88-2.534,1.933c-0.086,0.236-0.128,0.58-0.128,0.88v6.271h-1.891V100.923z"/>
	<path fill="#626162" d="M318.367,93.256v12.563c0,0.923,0.021,1.976,0.086,2.685h-1.696l-0.086-1.804h-0.043
		c-0.58,1.16-1.825,2.04-3.521,2.04c-2.513,0-4.467-2.126-4.467-5.283c-0.021-3.479,2.147-5.583,4.66-5.583
		c1.61,0,2.684,0.752,3.135,1.568h0.043v-6.185H318.367z M316.478,102.34c0-0.257-0.021-0.558-0.086-0.816
		c-0.279-1.181-1.31-2.169-2.728-2.169c-1.954,0-3.113,1.718-3.113,3.994c0,2.126,1.052,3.866,3.07,3.866
		c1.268,0,2.427-0.859,2.771-2.255c0.064-0.258,0.086-0.516,0.086-0.816V102.34z"/>
	<path fill="#626162" d="M333.593,101.717h-5.605v5.218h6.271v1.568h-8.161V94.029h7.839v1.567h-5.949v4.574h5.605V101.717z"/>
	<path fill="#626162" d="M336.6,101.352c0-1.224-0.021-2.276-0.086-3.243h1.654l0.086,2.04h0.064
		c0.472-1.396,1.632-2.276,2.898-2.276c0.193,0,0.344,0.021,0.516,0.064v1.761c-0.215-0.021-0.408-0.043-0.666-0.043
		c-1.331,0-2.276,1.009-2.534,2.405c-0.043,0.279-0.064,0.58-0.064,0.902v5.541h-1.89L336.6,101.352z"/>
	<path fill="#626162" d="M343.686,100.923c0-1.096-0.021-1.955-0.086-2.813h1.676l0.107,1.696h0.043
		c0.515-0.966,1.718-1.933,3.436-1.933c1.438,0,3.673,0.859,3.673,4.424v6.207h-1.891v-5.992c0-1.675-0.622-3.092-2.405-3.092
		c-1.224,0-2.19,0.88-2.534,1.933c-0.086,0.236-0.129,0.58-0.129,0.88v6.271h-1.89V100.923z"/>
	<path fill="#626162" d="M356.679,103.628c0.043,2.556,1.653,3.608,3.543,3.608c1.354,0,2.19-0.236,2.878-0.515l0.344,1.331
		c-0.666,0.301-1.825,0.666-3.479,0.666c-3.178,0-5.11-2.126-5.11-5.24c0-3.157,1.868-5.626,4.896-5.626
		c3.393,0,4.273,2.985,4.273,4.896c0,0.387-0.021,0.687-0.064,0.902L356.679,103.628z M362.197,102.275
		c0.021-1.181-0.493-3.071-2.598-3.071c-1.934,0-2.749,1.761-2.899,3.071H362.197z"/>
	<path fill="#626162" d="M375.062,105.668c0,1.074,0.021,2.019,0.086,2.835h-1.676l-0.107-1.697h-0.043
		c-0.472,0.838-1.589,1.933-3.436,1.933c-1.633,0-3.587-0.923-3.587-4.553v-6.078h1.891v5.734c0,1.976,0.622,3.329,2.319,3.329
		c1.267,0,2.147-0.88,2.49-1.739c0.107-0.258,0.172-0.602,0.172-0.967v-6.356h1.891V105.668z"/>
	<path fill="#626162" d="M379.271,103.628c0.043,2.556,1.653,3.608,3.543,3.608c1.354,0,2.19-0.236,2.878-0.515l0.344,1.331
		c-0.666,0.301-1.825,0.666-3.479,0.666c-3.178,0-5.11-2.126-5.11-5.24c0-3.157,1.868-5.626,4.896-5.626
		c3.393,0,4.273,2.985,4.273,4.896c0,0.387-0.021,0.687-0.064,0.902L379.271,103.628z M384.789,102.275
		c0.021-1.181-0.493-3.071-2.598-3.071c-1.934,0-2.749,1.761-2.899,3.071H384.789z"/>
	<path fill="#626162" d="M397.653,105.668c0,1.074,0.021,2.019,0.086,2.835h-1.676l-0.107-1.697h-0.043
		c-0.472,0.838-1.589,1.933-3.436,1.933c-1.633,0-3.587-0.923-3.587-4.553v-6.078h1.891v5.734c0,1.976,0.622,3.329,2.319,3.329
		c1.267,0,2.147-0.88,2.49-1.739c0.107-0.258,0.172-0.602,0.172-0.967v-6.356h1.891V105.668z"/>
	<path fill="#626162" d="M400.788,100.923c0-1.096-0.021-1.955-0.086-2.813h1.676l0.107,1.696h0.043
		c0.515-0.966,1.718-1.933,3.436-1.933c1.438,0,3.672,0.859,3.672,4.424v6.207h-1.89v-5.992c0-1.675-0.622-3.092-2.405-3.092
		c-1.224,0-2.19,0.88-2.534,1.933c-0.086,0.236-0.128,0.58-0.128,0.88v6.271h-1.891V100.923z"/>
	<path fill="#626162" d="M421.598,106.979c0,2.405-0.493,3.844-1.481,4.768c-1.03,0.923-2.491,1.246-3.801,1.246
		c-1.246,0-2.62-0.301-3.458-0.859l0.473-1.46c0.688,0.451,1.761,0.837,3.05,0.837c1.933,0,3.35-1.009,3.35-3.65v-1.138h-0.043
		c-0.558,0.966-1.696,1.739-3.307,1.739c-2.577,0-4.424-2.19-4.424-5.09c0-3.522,2.298-5.498,4.703-5.498
		c1.804,0,2.77,0.923,3.242,1.783h0.043l0.064-1.546h1.675c-0.064,0.73-0.086,1.568-0.086,2.835V106.979z M419.708,102.189
		c0-0.3-0.021-0.58-0.107-0.837c-0.344-1.117-1.245-2.019-2.642-2.019c-1.804,0-3.092,1.525-3.092,3.952
		c0,2.019,1.052,3.736,3.07,3.736c1.182,0,2.234-0.73,2.62-1.954c0.107-0.301,0.15-0.666,0.15-1.009V102.189z"/>
</g>
<g>
	<path fill="#DDDCDD" stroke="#000000" stroke-width="0.5" d="M31.683,16.716"/>
	<polyline fill="#E3E4E4" stroke="#000000" stroke-width="0.5" points="449.433,21.002 38.34,21.002 38.34,18.019 449.433,18.019
		"/>
	<polyline fill="#316598" points="449.606,25.659 24.199,25.659 24.199,22.675 449.606,22.675 	"/>
	<polyline fill="#316598" points="24.107,91.955 24.107,22.681 27.091,22.681 27.091,91.955 	"/>
	<polyline fill="#E3E4E4" stroke="#000000" stroke-width="0.5" points="19.334,91.877 19.334,31.566 22.412,31.566 22.412,91.877
		"/>
	<path fill="#E3E4E4" stroke="#000000" stroke-width="0.5" d="M19.387,27.772L19.398,5.4h-5.019v15.054c0,0-0.295,5.669,7.971,8.817
		c8.266,3.15,12.411,3.225,17.873,8.705c0,0-4.247-2.91-16.055-1.713c0,0-8.007,1.438-11.846-3.854c0,0-3.629,2.335-8.206,0.571
		c0,0-7.088-3.637-2.069-10.062c0,0,1.852,3.014,4.509,2.51c0,0,4.481-0.939,4.354-5.039l0.221-18.233H22.35v27.114L19.387,27.772z"
		/>
	<path fill="#E3E4E4" stroke="#000000" stroke-width="0.5" d="M22.37,18.019h8.672c0,0,1.564,2.306,1.499,3.019H22.414L22.37,18.019
		z"/>
	<path fill="#E3E4E4" stroke="#000000" stroke-width="0.5" d="M14.391,12.93h7.993c0,0,6.422-0.286,9.99,7.707
		c3.568,7.992,1.998,11.774,8.206,17.054c0,0-2.069-3.924-0.714-15.341c0,0,1.356-7.635-4.638-11.346c0,0,3.282-2.355,1.284-6.779
		c0,0-3.924-7.136-11.203-2.284c0,0,3.282,0.856,2.711,3.425c0,0-1.07,4.282-5.708,4.21l-7.935,0.082L14.391,12.93z"/>
	<polygon fill="#E3E4E4" stroke="#000000" stroke-width="0.5" points="11.02,9.56 1.726,9.578 1.726,21.092 19.343,21.092
		19.343,18.005 5.576,18.15 5.612,13.029 11.005,12.998 	"/>
</g>
</svg>
